<?xml version="1.0" encoding="UTF-8"?>
<svg id="Layer_1" data-name="Layer 1" xmlns="http://www.w3.org/2000/svg" viewBox="0 0 181.96 260.66">
  <defs>
    <style>
      .cls-1 {
        fill: #d1d1d1;
      }
    </style>
  </defs>
  <path class="cls-1" d="M67.98,163.29v5.17c0,16.48,4.67,27.06,23.37,27.06,10.82,0,21.15-6.89,21.15-21.65,0-15.99-8.12-21.89-31.49-30.01-31.49-10.82-46-23.86-46-53.13,0-34.19,20.91-51.66,54.36-51.66,31.49,0,54.36,13.53,54.36,47.23v4.92h-33.94c0-16.48-5.66-26.07-19.19-26.07-15.99,0-20.17,10.09-20.17,20.42s3.2,17.47,18.2,23.86l27.3,11.81c26.56,11.56,33.45,25.09,33.45,46.49,0,37.14-22.63,53.87-61,53.87s-55.84-18.7-55.84-51.16v-7.13h35.42Z"/>
</svg>