<?xml version="1.0" encoding="utf-8"?>
<!-- Generator: Adobe Illustrator 27.0.1, SVG Export Plug-In . SVG Version: 6.00 Build 0)  -->
<svg version="1.1" id="Layer_1" xmlns="http://www.w3.org/2000/svg" xmlns:xlink="http://www.w3.org/1999/xlink" x="0px" y="0px"
	 viewBox="0 0 182 260.7" style="enable-background:new 0 0 182 260.7;" xml:space="preserve">
<style type="text/css">
	.st0{fill:#D1D1D1;}
</style>
<path class="st0" d="M87,5.5v251c-29.9-1.3-56.3-17.4-71.3-43.6C0,185.6,0.1,153.1,16.1,125.9l69.8-119C86.2,6.4,86.5,5.9,87,5.5
	 M91,0c-3.3,0-6.7,1.6-8.6,4.9L12.6,123.9c-35.5,60.6,8.2,136.8,78.3,136.8V0L91,0z"/>
<path class="st0" d="M91,260.7V0c3.3,0,6.7,1.6,8.6,4.9l69.8,118.9C204.9,184.4,161.2,260.7,91,260.7z"/>
</svg>
