<?xml version="1.0" encoding="UTF-8"?>
<svg id="Layer_1" data-name="Layer 1" xmlns="http://www.w3.org/2000/svg" viewBox="0 0 181.96 260.66">
  <defs>
    <style>
      .cls-1 {
        fill: #3c3c3c;
      }
    </style>
  </defs>
  <path class="cls-1" d="M90.97,5c.85,0,2.97,.24,4.26,2.44l69.79,118.95c15.76,26.87,15.93,59.05,.44,86.09-15.49,27.04-43.33,43.18-74.49,43.18s-59-16.14-74.48-43.18c-15.49-27.04-15.32-59.22,.44-86.09L86.72,7.44c1.29-2.2,3.4-2.44,4.25-2.44M90.97,0c-3.32,0-6.65,1.63-8.57,4.91L12.62,123.86c-35.52,60.55,8.15,136.8,78.35,136.8s113.88-76.25,78.36-136.8L99.54,4.91C97.62,1.63,94.29,0,90.97,0h0Z"/>
</svg>