<?xml version="1.0" encoding="utf-8"?>
<!-- Generator: Adobe Illustrator 27.0.1, SVG Export Plug-In . SVG Version: 6.00 Build 0)  -->
<svg version="1.1" id="Layer_1" xmlns="http://www.w3.org/2000/svg" xmlns:xlink="http://www.w3.org/1999/xlink" x="0px" y="0px"
	 viewBox="0 0 182 260.7" style="enable-background:new 0 0 182 260.7;" xml:space="preserve">
<style type="text/css">
	.st0{fill:#D1D1D1;}
</style>
<path class="st0" d="M91,5c0.8,0,3,0.2,4.3,2.4L165,126.4c15.8,26.9,15.9,59.1,0.4,86.1s-43.3,43.2-74.5,43.2s-59-16.1-74.5-43.2
	c-15.5-27-15.3-59.2,0.4-86.1l69.8-119C88,5.2,90.1,5,91,5 M91,0c-3.3,0-6.7,1.6-8.6,4.9L12.6,123.9
	c-35.5,60.6,8.2,136.8,78.3,136.8s113.9-76.2,78.4-136.8L99.5,4.9C97.6,1.6,94.3,0,91,0L91,0z"/>
</svg>
